<?xml version="1.0" encoding="UTF-8"?>
<!DOCTYPE svg PUBLIC "-//W3C//DTD SVG 1.1//EN" "http://www.w3.org/Graphics/SVG/1.1/DTD/svg11.dtd">
<svg xmlns="http://www.w3.org/2000/svg" version="1.1" width="512px" height="512px" style="shape-rendering:geometricPrecision; text-rendering:geometricPrecision; image-rendering:optimizeQuality; fill-rule:evenodd; clip-rule:evenodd" xmlns:xlink="http://www.w3.org/1999/xlink">
<g><path style="opacity:0.993" fill="#000000" d="M 19.5,15.5 C 176.834,15.3333 334.167,15.5 491.5,16C 493.333,16.5 494.5,17.6667 495,19.5C 495.667,118.167 495.667,216.833 495,315.5C 494.5,317.333 493.333,318.5 491.5,319C 486.467,319.171 481.467,319.671 476.5,320.5C 487.27,372.43 475.103,418.096 440,457.5C 439.667,461.833 439.333,466.167 439,470.5C 438.152,473.698 436.652,476.531 434.5,479C 453.5,479.333 472.5,479.667 491.5,480C 493.333,480.5 494.5,481.667 495,483.5C 495.817,486.964 495.483,490.298 494,493.5C 493.25,494.126 492.416,494.626 491.5,495C 334.167,495.667 176.833,495.667 19.5,495C 16.484,493.471 15.1506,490.971 15.5,487.5C 15.1506,484.029 16.484,481.529 19.5,480C 36.4967,479.5 53.4967,479.333 70.5,479.5C 67.2575,437.514 64.0909,395.514 61,353.5C 52.763,351.711 44.263,350.878 35.5,351C 32.484,349.471 31.1506,346.971 31.5,343.5C 31.1506,340.029 32.484,337.529 35.5,336C 43.4931,335.5 51.4931,335.334 59.5,335.5C 59.3135,330.155 58.9801,324.822 58.5,319.5C 45.4957,319.667 32.4957,319.5 19.5,319C 17.6667,318.5 16.5,317.333 16,315.5C 15.3333,216.833 15.3333,118.167 16,19.5C 16.6897,17.6498 17.8564,16.3164 19.5,15.5 Z M 210.5,351.5 C 214.833,351.5 219.167,351.5 223.5,351.5C 222.583,406.51 244.916,449.01 290.5,479C 260.502,479.5 230.502,479.667 200.5,479.5C 203.682,436.802 207.015,394.135 210.5,351.5 Z"/></g>
<g><path style="opacity:1" fill="#99a2a7" d="M 31.5,31.5 C 180.833,31.5 330.167,31.5 479.5,31.5C 479.5,122.167 479.5,212.833 479.5,303.5C 467.829,303.667 456.162,303.5 444.5,303C 435.938,291.027 424.271,286.027 409.5,288C 406.623,288.956 403.956,290.289 401.5,292C 398.232,292.38 395.232,291.546 392.5,289.5C 391.639,277.93 385.973,269.763 375.5,265C 367.015,248.061 354.349,243.728 337.5,252C 333.546,255.117 330.546,258.95 328.5,263.5C 317.414,268.682 311.581,277.349 311,289.5C 308.394,290.599 305.894,291.932 303.5,293.5C 285.759,284.201 270.759,287.368 258.5,303C 243.504,303.5 228.504,303.667 213.5,303.5C 213.5,298.167 213.5,292.833 213.5,287.5C 220.008,287.991 223.341,284.991 223.5,278.5C 221.158,268.131 218.658,257.798 216,247.5C 215.484,244.966 214.317,242.8 212.5,241C 189.232,239.531 165.899,239.031 142.5,239.5C 140.073,219.084 137.24,198.751 134,178.5C 121.524,171.095 108.524,164.762 95,159.5C 87.9972,161.507 85.9972,165.841 89,172.5C 98.93,178.216 109.097,183.549 119.5,188.5C 122.569,205.38 124.902,222.38 126.5,239.5C 103.743,239.021 81.076,239.521 58.5,241C 56.683,242.8 55.5163,244.966 55,247.5C 52.3422,257.798 49.8422,268.131 47.5,278.5C 47.6762,285.01 51.0095,288.01 57.5,287.5C 57.5,292.833 57.5,298.167 57.5,303.5C 48.8333,303.5 40.1667,303.5 31.5,303.5C 31.5,212.833 31.5,122.167 31.5,31.5 Z"/></g>
<g><path style="opacity:1" fill="#030303" d="M 244.5,71.5 C 293.56,70.0789 323.726,93.0789 335,140.5C 337.463,183.657 318.63,212.823 278.5,228C 237.98,237.393 206.813,224.56 185,189.5C 168.615,153.773 173.782,121.606 200.5,93C 213.248,81.7924 227.914,74.6257 244.5,71.5 Z"/></g>
<g><path style="opacity:1" fill="#e7ecf0" d="M 245.5,87.5 C 284.611,85.7953 309.111,103.795 319,141.5C 321.742,172.86 309.242,195.694 281.5,210C 250.13,221.54 223.963,214.373 203,188.5C 183.437,154.323 188.603,124.49 218.5,99C 226.899,93.4868 235.899,89.6535 245.5,87.5 Z"/></g>
<g><path style="opacity:1" fill="#040303" d="M 236.5,119.5 C 239.271,119.421 241.937,119.921 244.5,121C 260.5,129 276.5,137 292.5,145C 295.848,148.419 296.348,152.252 294,156.5C 276.192,166.571 257.859,175.571 239,183.5C 235.112,183.277 232.779,181.277 232,177.5C 231.333,159.833 231.333,142.167 232,124.5C 233.025,122.313 234.525,120.646 236.5,119.5 Z"/></g>
<g><path style="opacity:1" fill="#e6403d" d="M 247.5,140.5 C 254.631,143.899 261.631,147.566 268.5,151.5C 261.746,155.294 254.913,158.961 248,162.5C 247.5,155.174 247.334,147.841 247.5,140.5 Z"/></g>
<g><path style="opacity:1" fill="#030302" d="M 417.5,191.5 C 431.363,190.2 441.196,195.867 447,208.5C 463.633,216.732 467.633,229.065 459,245.5C 454.976,250.592 449.809,253.759 443.5,255C 430.137,266.277 416.804,266.277 403.5,255C 388.633,250.779 382.133,240.946 384,225.5C 386.884,217.782 392.05,212.115 399.5,208.5C 403.628,200.701 409.628,195.034 417.5,191.5 Z"/></g>
<g><path style="opacity:1" fill="#fae26a" d="M 420.5,207.5 C 425.28,206.641 428.78,208.308 431,212.5C 431.413,215.232 432.08,217.899 433,220.5C 433.903,221.701 435.069,222.535 436.5,223C 447.133,223.936 449.8,228.936 444.5,238C 441.956,239.092 439.289,239.759 436.5,240C 434.167,241 432.5,242.667 431.5,245C 423.9,249.299 417.567,247.966 412.5,241C 409.117,240.125 405.784,239.125 402.5,238C 398.5,233.667 398.5,229.333 402.5,225C 406.62,224.117 410.453,222.617 414,220.5C 414.92,217.899 415.587,215.232 416,212.5C 417.025,210.313 418.525,208.646 420.5,207.5 Z"/></g>
<g><path style="opacity:1" fill="#d9dbdd" d="M 69.5,255.5 C 113.505,255.167 157.505,255.5 201.5,256.5C 202.833,261.167 204.167,265.833 205.5,270.5C 158.833,271.833 112.167,271.833 65.5,270.5C 66.9921,265.531 68.3255,260.531 69.5,255.5 Z"/></g>
<g><path style="opacity:1" fill="#fae26a" d="M 348.5,263.5 C 353.28,262.641 356.78,264.308 359,268.5C 359.413,271.232 360.08,273.899 361,276.5C 361.903,277.701 363.069,278.535 364.5,279C 375.133,279.936 377.8,284.936 372.5,294C 369.956,295.092 367.289,295.759 364.5,296C 362.167,297 360.5,298.667 359.5,301C 351.9,305.299 345.567,303.966 340.5,297C 337.117,296.125 333.784,295.125 330.5,294C 326.5,289.667 326.5,285.333 330.5,281C 334.62,280.117 338.453,278.617 342,276.5C 342.92,273.899 343.587,271.232 344,268.5C 345.025,266.313 346.525,264.646 348.5,263.5 Z"/></g>
<g><path style="opacity:1" fill="#2c84cb" d="M 73.5,287.5 C 114.833,287.5 156.167,287.5 197.5,287.5C 193.25,351.505 188.916,415.505 184.5,479.5C 151.833,479.5 119.167,479.5 86.5,479.5C 82.0836,415.505 77.7503,351.505 73.5,287.5 Z"/></g>
<g><path style="opacity:1" fill="#fdd139" d="M 384.5,303.5 C 389.464,305.973 394.298,308.639 399,311.5C 400.888,311.204 402.722,310.704 404.5,310C 412.781,301.508 421.281,301.341 430,309.5C 431.318,312.477 432.818,315.31 434.5,318C 458.519,316.527 468.185,327.694 463.5,351.5C 388.833,351.5 314.167,351.5 239.5,351.5C 234.792,327.715 244.459,316.548 268.5,318C 272.279,306.903 279.946,302.569 291.5,305C 295.158,307.992 299.158,310.159 303.5,311.5C 304.833,311.333 306.167,311.167 307.5,311C 310.453,308.207 313.787,306.04 317.5,304.5C 324.336,308.055 331.003,311.888 337.5,316C 349.917,321.692 361.25,320.025 371.5,311C 376.804,310.02 381.137,307.52 384.5,303.5 Z"/></g>
<g><path style="opacity:1" fill="#010103" d="M 127.5,319.5 C 151.879,317.742 167.712,328.409 175,351.5C 177.155,376.328 166.322,392.161 142.5,399C 117.118,400.733 101.618,389.233 96,364.5C 95.1586,341.504 105.659,326.504 127.5,319.5 Z"/></g>
<g><path style="opacity:1" fill="#5d6366" d="M 211.5,319.5 C 216.875,319.172 222.208,319.505 227.5,320.5C 224.531,325.073 223.197,330.073 223.5,335.5C 219.167,335.5 214.833,335.5 210.5,335.5C 211.098,330.187 211.431,324.854 211.5,319.5 Z"/></g>
<g><path style="opacity:1" fill="#375789" d="M 129.5,335.5 C 146.279,334.126 156.279,341.626 159.5,358C 159.42,359.894 159.087,361.727 158.5,363.5C 157.998,364.521 157.332,364.688 156.5,364C 144.66,356.247 132.993,348.247 121.5,340C 124.099,338.205 126.766,336.705 129.5,335.5 Z"/></g>
<g><path style="opacity:1" fill="#375889" d="M 112.5,354.5 C 124.947,362.23 137.28,370.23 149.5,378.5C 135.163,387.203 123.33,384.536 114,370.5C 111.676,365.26 111.176,359.927 112.5,354.5 Z"/></g>
<g><path style="opacity:1" fill="#ea413e" d="M 240.5,367.5 C 314.833,367.5 389.167,367.5 463.5,367.5C 460.723,396.355 449.723,421.522 430.5,443C 427.983,443.257 425.65,442.59 423.5,441C 414.974,424.053 402.307,419.72 385.5,428C 381.241,431.358 378.074,435.525 376,440.5C 359.31,449.048 355.477,461.548 364.5,478C 326.575,481.791 295.075,469.291 270,440.5C 252.244,419.406 242.411,395.072 240.5,367.5 Z"/></g>
<g><path style="opacity:1" fill="#fae269" d="M 396.5,439.5 C 401.28,438.641 404.78,440.308 407,444.5C 407.413,447.232 408.08,449.899 409,452.5C 409.903,453.701 411.069,454.535 412.5,455C 423.133,455.936 425.8,460.936 420.5,470C 417.956,471.092 415.289,471.759 412.5,472C 410.167,473 408.5,474.667 407.5,477C 399.855,481.295 393.522,479.962 388.5,473C 385.117,472.125 381.784,471.125 378.5,470C 374.5,465.667 374.5,461.333 378.5,457C 382.62,456.117 386.453,454.617 390,452.5C 390.92,449.899 391.587,447.232 392,444.5C 393.025,442.313 394.525,440.646 396.5,439.5 Z"/></g>
</svg>
